<?xml version="1.0" standalone="no"?>
<!DOCTYPE svg PUBLIC "-//W3C//DTD SVG 20010904//EN"
 "http://www.w3.org/TR/2001/REC-SVG-20010904/DTD/svg10.dtd">
<svg version="1.0" xmlns="http://www.w3.org/2000/svg"
 width="128.000000pt" height="128.000000pt" viewBox="0 0 128.000000 128.000000"
 preserveAspectRatio="xMidYMid meet">

<g transform="translate(0.000000,128.000000) scale(0.100000,-0.100000)"
fill="#000000" stroke="none">
<path d="M802 1268 c-7 -7 -12 -44 -13 -92 l-1 -81 -14 58 c-21 86 -23 89 -61
70 -18 -8 -44 -26 -59 -40 l-26 -24 42 -30 c43 -32 92 -100 111 -156 l11 -33
177 0 178 0 -5 31 c-3 19 -13 34 -27 41 -15 7 -26 23 -30 46 -11 58 -43 110
-87 142 -70 51 -73 48 -107 -80 -8 -29 -9 -19 -10 56 -1 74 -4 93 -17 98 -25
9 -49 7 -62 -6z"/>
<path d="M407 1123 c-4 -3 -7 -47 -8 -97 l-1 -91 -19 74 c-10 41 -21 76 -23
78 -2 3 -22 -5 -44 -16 -56 -29 -99 -85 -113 -148 -7 -29 -18 -53 -24 -53 -17
0 -31 -19 -39 -52 l-6 -28 310 0 310 0 0 23 c0 27 -9 41 -36 55 -15 8 -23 24
-27 52 -3 23 -17 59 -31 80 -28 42 -112 98 -126 84 -4 -5 -15 -38 -23 -74
l-15 -65 -1 81 c-1 48 -6 85 -13 92 -13 13 -60 16 -71 5z"/>
<path d="M848 815 c4 -61 3 -66 -26 -95 -17 -16 -38 -30 -46 -30 -9 0 -16 -8
-16 -18 0 -35 -30 -119 -55 -157 -14 -20 -25 -38 -23 -39 192 -85 298 -186
298 -284 0 -38 7 -39 118 -16 136 28 172 57 172 139 0 49 -4 59 -36 95 -35 38
-216 140 -250 140 -17 0 -34 31 -34 63 0 14 16 44 36 69 43 51 59 86 68 151
l7 47 -108 0 -109 0 4 -65z"/>
<path d="M231 677 c8 -62 27 -102 70 -151 23 -27 30 -43 27 -68 -3 -31 -9 -36
-111 -86 -71 -35 -126 -70 -158 -101 -47 -45 -49 -50 -49 -102 0 -45 4 -59 22
-76 64 -58 137 -74 363 -80 149 -4 210 -2 283 11 149 26 202 63 202 141 0 79
-49 128 -195 195 -49 23 -97 45 -105 49 -8 5 -16 25 -18 45 -3 31 4 47 38 91
43 56 60 99 60 152 l0 33 -218 0 -219 0 8 -53z"/>
</g>
</svg>
