<?xml version="1.0" encoding="UTF-8"?>
<svg xmlns="http://www.w3.org/2000/svg" xmlns:xlink="http://www.w3.org/1999/xlink" width="16px" height="16px" viewBox="0 0 16 16" version="1.1">
<g id="surface1">
<path style=" stroke:none;fill-rule:nonzero;fill:rgb(0%,0%,0%);fill-opacity:1;" d="M 10.023438 0.148438 C 9.9375 0.238281 9.875 0.699219 9.863281 1.300781 L 9.851562 2.3125 L 9.675781 1.585938 C 9.414062 0.511719 9.386719 0.476562 8.914062 0.710938 C 8.6875 0.8125 8.363281 1.039062 8.175781 1.210938 L 7.851562 1.511719 L 8.375 1.886719 C 8.914062 2.289062 9.523438 3.136719 9.761719 3.835938 L 9.898438 4.25 L 14.335938 4.25 L 14.273438 3.863281 C 14.238281 3.625 14.113281 3.4375 13.9375 3.351562 C 13.75 3.261719 13.613281 3.0625 13.5625 2.773438 C 13.425781 2.050781 13.023438 1.398438 12.476562 1 C 11.601562 0.363281 11.5625 0.398438 11.136719 2 C 11.039062 2.363281 11.023438 2.238281 11.011719 1.300781 C 11 0.375 10.960938 0.136719 10.800781 0.0742188 C 10.488281 -0.0390625 10.1875 -0.0117188 10.023438 0.148438 Z M 10.023438 0.148438 "/>
<path style=" stroke:none;fill-rule:nonzero;fill:rgb(0%,0%,0%);fill-opacity:1;" d="M 5.085938 1.960938 C 5.039062 2 5 2.550781 4.988281 3.175781 L 4.976562 4.3125 L 4.738281 3.386719 C 4.613281 2.875 4.476562 2.4375 4.449219 2.414062 C 4.425781 2.375 4.175781 2.476562 3.898438 2.613281 C 3.199219 2.976562 2.664062 3.675781 2.488281 4.460938 C 2.398438 4.824219 2.261719 5.125 2.1875 5.125 C 1.976562 5.125 1.800781 5.363281 1.699219 5.773438 L 1.625 6.125 L 9.375 6.125 L 9.375 5.835938 C 9.375 5.5 9.261719 5.324219 8.925781 5.148438 C 8.738281 5.050781 8.636719 4.851562 8.585938 4.5 C 8.550781 4.210938 8.375 3.761719 8.199219 3.5 C 7.851562 2.976562 6.800781 2.273438 6.625 2.449219 C 6.574219 2.511719 6.4375 2.925781 6.335938 3.375 L 6.148438 4.1875 L 6.136719 3.175781 C 6.125 2.574219 6.0625 2.113281 5.976562 2.023438 C 5.8125 1.863281 5.226562 1.824219 5.085938 1.960938 Z M 5.085938 1.960938 "/>
<path style=" stroke:none;fill-rule:nonzero;fill:rgb(0%,0%,0%);fill-opacity:1;" d="M 10.601562 5.8125 C 10.648438 6.574219 10.636719 6.636719 10.273438 7 C 10.0625 7.199219 9.800781 7.375 9.699219 7.375 C 9.585938 7.375 9.5 7.476562 9.5 7.601562 C 9.5 8.039062 9.125 9.085938 8.8125 9.5625 C 8.636719 9.8125 8.5 10.039062 8.523438 10.050781 C 10.925781 11.113281 12.25 12.375 12.25 13.601562 C 12.25 14.074219 12.335938 14.085938 13.726562 13.800781 C 15.425781 13.449219 15.875 13.085938 15.875 12.0625 C 15.875 11.449219 15.824219 11.324219 15.425781 10.875 C 14.988281 10.398438 12.726562 9.125 12.300781 9.125 C 12.085938 9.125 11.875 8.738281 11.875 8.335938 C 11.875 8.164062 12.074219 7.789062 12.324219 7.476562 C 12.863281 6.835938 13.0625 6.398438 13.175781 5.585938 L 13.261719 5 L 10.550781 5 Z M 10.601562 5.8125 "/>
<path style=" stroke:none;fill-rule:nonzero;fill:rgb(0%,0%,0%);fill-opacity:1;" d="M 2.886719 7.539062 C 2.988281 8.3125 3.226562 8.8125 3.761719 9.425781 C 4.050781 9.761719 4.136719 9.960938 4.101562 10.273438 C 4.0625 10.664062 3.988281 10.726562 2.710938 11.351562 C 1.824219 11.789062 1.136719 12.226562 0.738281 12.613281 C 0.148438 13.175781 0.125 13.238281 0.125 13.886719 C 0.125 14.449219 0.175781 14.625 0.398438 14.835938 C 1.199219 15.5625 2.113281 15.761719 4.9375 15.835938 C 6.800781 15.886719 7.5625 15.863281 8.476562 15.699219 C 10.335938 15.375 11 14.914062 11 13.9375 C 11 12.949219 10.386719 12.335938 8.5625 11.5 C 7.949219 11.210938 7.351562 10.9375 7.25 10.886719 C 7.148438 10.824219 7.050781 10.574219 7.023438 10.324219 C 6.988281 9.9375 7.074219 9.738281 7.5 9.1875 C 8.039062 8.488281 8.25 7.949219 8.25 7.289062 L 8.25 6.875 L 2.789062 6.875 Z M 2.886719 7.539062 "/>
</g>
</svg>
